<?xml version="1.0" standalone="no"?>
<!DOCTYPE svg PUBLIC "-//W3C//DTD SVG 20010904//EN"
 "http://www.w3.org/TR/2001/REC-SVG-20010904/DTD/svg10.dtd">
<svg version="1.0" xmlns="http://www.w3.org/2000/svg"
 width="510.000000pt" height="510.000000pt" viewBox="0 0 510.000000 510.000000"
 preserveAspectRatio="xMidYMid meet">
<metadata>
Created by potrace 1.11, written by Peter Selinger 2001-2013
</metadata>
<g transform="translate(0.000000,510.000000) scale(0.100000,-0.100000)"
fill="#000000" stroke="none">
<path d="M2417 4924 c-1 -1 -33 -5 -70 -9 -37 -3 -78 -8 -90 -11 -12 -2 -38
-7 -57 -10 -91 -16 -239 -61 -345 -105 -16 -7 -32 -13 -35 -14 -3 0 -34 -16
-70 -34 -286 -147 -516 -358 -684 -624 -129 -206 -205 -415 -251 -687 -11 -62
-13 -342 -4 -424 37 -321 166 -634 365 -883 29 -37 54 -74 54 -82 0 -13 -53
-114 -88 -169 -15 -23 -14 -23 24 3 21 15 65 40 97 57 l59 29 52 -48 c71 -66
97 -86 201 -155 213 -142 460 -236 715 -273 106 -15 355 -18 440 -5 97 15 135
21 150 25 8 2 29 7 47 10 18 3 81 21 140 40 646 212 1109 784 1180 1460 20
192 -2 481 -47 630 -87 281 -216 525 -363 682 l-31 33 13 82 c7 46 14 93 16
106 4 27 -7 28 -128 7 l-88 -16 -37 29 c-76 60 -214 144 -314 191 -107 50
-294 115 -363 125 -22 4 -47 8 -55 11 -54 15 -176 27 -318 29 -62 1 -114 1
-115 0z"/>
<path d="M4523 2633 c-4 -10 -44 -110 -90 -222 -46 -112 -83 -207 -83 -210 0
-8 67 -51 80 -51 5 0 19 21 30 48 11 26 28 63 38 84 l17 36 175 -72 c96 -40
194 -80 217 -89 l43 -17 16 38 c37 87 52 72 -144 152 -97 40 -196 81 -219 91
l-42 18 29 72 c17 39 30 78 30 85 0 8 -18 23 -40 34 -48 24 -49 24 -57 3z"/>
<path d="M333 2575 c-122 -33 -198 -87 -239 -171 -23 -48 -26 -63 -22 -123 5
-70 43 -167 86 -220 16 -20 21 -21 39 -11 19 13 19 14 -14 69 -60 100 -74 192
-38 261 52 100 256 179 349 135 20 -10 46 -30 57 -46 22 -31 78 -183 79 -211
0 -13 8 -18 30 -18 17 0 30 2 30 4 0 15 -63 192 -80 226 -54 107 -144 141
-277 105z"/>
<path d="M592 2148 c-110 -72 -334 -217 -354 -229 -6 -4 -4 -16 7 -32 l16 -25
87 57 c140 93 126 91 168 25 l36 -56 -68 -131 -67 -130 19 -35 18 -34 72 144
c39 80 73 151 76 158 3 11 8 11 28 0 63 -34 146 -17 194 40 30 36 33 77 11
121 -19 36 -124 199 -128 199 -2 0 -54 -33 -115 -72z m156 -75 c24 -38 42 -79
42 -95 0 -55 -80 -100 -147 -83 -29 7 -78 54 -106 103 l-18 32 83 54 c46 30
88 55 93 55 6 1 29 -29 53 -66z"/>
<path d="M4269 2108 c-101 -142 -112 -208 -48 -274 64 -66 145 -68 246 -6 104
63 119 70 143 65 14 -2 31 -11 38 -20 28 -38 8 -86 -72 -163 -31 -30 -56 -57
-56 -60 0 -3 16 -22 35 -44 l35 -38 38 33 c85 76 147 178 151 251 7 127 -130
216 -247 161 -21 -9 -62 -34 -92 -54 -73 -49 -101 -56 -125 -30 -23 26 -15 47
52 133 25 33 41 63 37 67 -5 4 -26 18 -46 30 l-37 22 -52 -73z"/>
<path d="M822 1776 c-59 -58 -150 -145 -201 -195 l-94 -89 21 -29 c12 -15 71
-77 132 -138 89 -89 112 -107 120 -95 5 8 10 19 10 23 0 4 -47 56 -105 115
l-104 107 79 80 80 80 95 -100 c90 -95 95 -99 112 -82 16 16 15 19 -22 59 -22
23 -50 51 -61 63 -12 11 -36 37 -54 57 l-32 38 73 70 73 69 101 -106 c95 -100
102 -105 124 -93 23 12 23 13 -42 79 -36 36 -92 94 -125 129 -32 34 -62 62
-66 62 -4 0 -55 -47 -114 -104z"/>
<path d="M4058 1808 c-28 -25 -44 -48 -40 -54 6 -10 177 -196 233 -254 63 -66
66 -114 8 -169 -61 -60 -113 -62 -164 -6 -68 73 -207 226 -225 248 -13 15 -27
27 -32 27 -4 0 -27 -18 -49 -39 -38 -35 -40 -41 -28 -58 16 -23 209 -233 258
-281 84 -83 188 -76 295 20 75 67 110 134 104 203 -5 63 -24 91 -159 236 -58
63 -117 126 -130 142 l-24 27 -47 -42z"/>
<path d="M1047 1363 l-157 -236 96 -64 c122 -82 161 -96 241 -89 104 9 193 80
253 201 54 107 50 181 -13 245 -29 30 -222 165 -250 175 -7 3 -78 -94 -170
-232z m285 100 c102 -70 132 -110 126 -166 -8 -65 -47 -137 -108 -197 -106
-106 -207 -101 -359 18 l-23 19 131 197 c92 137 135 194 144 189 7 -4 47 -32
89 -60z"/>
<path d="M3584 1420 c-27 -9 -65 -26 -84 -37 -20 -11 -68 -37 -108 -58 l-72
-37 44 -81 c49 -92 100 -188 171 -322 26 -49 51 -94 55 -98 8 -9 110 38 110
51 0 4 -23 51 -50 104 l-50 97 39 20 38 20 30 -22 c17 -12 42 -31 58 -42 15
-11 47 -35 71 -53 l43 -32 66 32 c36 18 65 35 65 38 0 3 -53 42 -117 88 -86
61 -123 82 -140 79 -27 -5 -29 5 -8 36 25 38 26 110 3 157 -35 71 -84 89 -164
60z m48 -132 c39 -60 25 -109 -39 -145 l-40 -22 -36 69 -36 70 22 12 c12 7 31
18 42 24 34 20 71 16 87 -8z"/>
<path d="M1631 1317 c-5 -12 -36 -80 -70 -150 -33 -71 -61 -130 -61 -133 0 -2
-22 -50 -50 -106 -45 -94 -48 -104 -33 -115 30 -23 39 -14 76 65 51 111 98
213 151 326 25 54 46 102 46 106 0 4 -11 12 -25 18 -23 11 -27 9 -34 -11z"/>
<path d="M1730 1266 c0 -13 9 -52 19 -87 11 -35 24 -87 29 -114 6 -28 14 -57
17 -66 4 -12 -29 -47 -124 -129 -120 -103 -144 -129 -123 -131 4 0 16 -2 26
-4 23 -4 32 2 122 82 128 114 139 123 155 123 9 0 20 -7 23 -16 5 -13 31 -116
41 -166 2 -9 11 -44 20 -77 15 -50 22 -61 46 -70 21 -7 29 -7 29 2 0 7 -19 83
-42 171 l-42 158 60 56 c32 30 85 78 117 105 l58 51 -28 11 c-32 13 -39 9
-148 -94 -91 -85 -101 -92 -118 -86 -8 4 -17 18 -20 33 -6 35 -12 59 -38 164
-19 79 -24 88 -50 97 -27 9 -29 8 -29 -13z"/>
<path d="M3170 1237 c-25 -5 -46 -11 -47 -11 -2 -2 4 -30 32 -146 2 -8 7 -28
10 -45 l6 -30 -106 -26 c-109 -26 -112 -25 -119 13 -13 76 -42 178 -51 178
-27 -1 -110 -28 -108 -36 0 -5 3 -22 6 -39 3 -16 24 -109 47 -205 23 -96 43
-179 44 -185 1 -5 9 -36 16 -68 15 -65 6 -61 102 -36 l36 9 -14 60 c-8 33 -20
87 -28 121 -11 45 -12 61 -3 64 30 8 187 45 196 45 5 0 21 -54 37 -120 31
-134 18 -123 116 -99 38 10 40 16 23 69 -3 10 -8 27 -10 37 -2 10 -13 59 -25
108 -12 50 -23 95 -24 100 -1 6 -15 65 -31 133 -31 133 -26 127 -105 109z"/>
<path d="M2280 1133 c0 -7 0 -14 0 -15 -1 -2 -5 -20 -9 -40 l-9 -38 87 -1 c47
-1 91 -1 96 0 7 0 9 -78 7 -239 l-3 -240 63 3 63 2 3 155 c1 85 3 191 5 235
l2 80 87 0 c49 0 88 1 88 2 0 1 -5 25 -11 53 -10 47 -13 50 -42 51 -324 6
-427 4 -427 -8z"/>
<path d="M4073 809 c-8 -8 -8 -22 -1 -46 10 -36 14 -55 23 -106 7 -38 8 -41 6
-50 0 -5 -36 21 -79 56 -57 48 -82 63 -93 57 -16 -11 -18 -8 75 -84 66 -54 77
-60 102 -57 7 1 11 -4 11 -11 -1 -7 2 -37 7 -67 7 -46 10 -51 23 -39 11 12 12
23 3 64 -6 27 -13 60 -15 74 -10 65 -38 196 -44 208 -5 9 -10 9 -18 1z"/>
<path d="M1188 759 c-167 -156 -200 -191 -189 -202 8 -8 21 -1 50 27 l39 38
57 -28 c32 -16 59 -34 62 -41 3 -7 0 -32 -5 -57 -9 -42 -3 -56 22 -56 2 0 9
35 16 78 7 42 14 86 16 97 30 141 30 141 -5 160 -28 14 -31 13 -63 -16z m58
-36 c-15 -80 -28 -133 -33 -133 -11 0 -93 51 -93 57 0 11 105 103 118 103 8 0
11 -9 8 -27z"/>
<path d="M3854 690 c-12 -4 -30 -19 -40 -32 -11 -13 -27 -22 -36 -20 -26 5
-23 -9 27 -108 32 -64 49 -88 59 -84 12 5 8 20 -22 80 -40 81 -39 90 11 128
34 25 43 17 87 -73 18 -39 40 -71 47 -71 20 0 16 14 -26 99 -45 89 -60 100
-107 81z"/>
<path d="M1396 539 c-31 -77 -56 -144 -56 -149 0 -6 6 -10 14 -10 8 0 24 26
38 61 26 68 24 67 116 30 48 -19 53 -20 50 -4 -2 9 -22 23 -48 33 -84 29 -84
29 -59 89 12 28 27 50 33 47 86 -37 137 -53 142 -45 8 14 10 12 -88 52 l-87
35 -55 -139z"/>
<path d="M1650 610 c-12 -22 -7 -50 9 -50 13 0 24 51 12 63 -6 6 -13 1 -21
-13z"/>
<path d="M3638 589 c-70 -35 -65 -60 6 -29 26 11 51 20 55 20 6 0 31 -43 31
-54 0 -2 -20 -13 -45 -26 -51 -26 -65 -57 -44 -96 7 -14 23 -27 35 -30 24 -6
84 20 84 37 0 6 7 8 16 5 31 -12 32 6 3 77 -52 125 -65 135 -141 96z m113
-116 c8 -22 6 -30 -12 -50 -34 -35 -79 -25 -79 17 0 12 60 58 78 60 1 0 7 -12
13 -27z"/>
<path d="M3478 522 c-16 -9 -28 -20 -28 -23 0 -4 -9 -5 -20 -2 -12 3 -20 0
-20 -8 0 -31 106 -309 117 -309 18 0 16 28 -6 76 l-19 41 39 12 c55 17 79 51
75 110 -4 55 -29 99 -63 112 -33 12 -44 11 -75 -9z m91 -55 c27 -57 26 -81 -4
-112 -45 -44 -67 -34 -94 42 l-24 66 27 24 c43 36 71 31 95 -20z"/>
<path d="M1583 414 c-31 -91 -33 -114 -14 -114 12 0 73 180 67 196 -11 28 -22
11 -53 -82z"/>
<path d="M1677 482 c-5 -8 -57 -188 -57 -196 0 -3 6 -6 14 -6 9 0 21 22 31 58
27 98 30 102 72 102 67 0 70 -7 45 -103 -26 -100 -26 -97 -9 -97 14 0 44 88
54 155 7 53 -13 70 -78 70 -26 -1 -46 2 -43 6 2 4 -3 9 -11 13 -8 3 -16 2 -18
-2z"/>
<path d="M2349 482 c-1 -4 -3 -50 -5 -102 -2 -52 -5 -125 -8 -162 -3 -58 -1
-68 13 -68 14 0 17 13 19 77 4 86 9 98 52 107 55 11 60 3 60 -98 0 -76 3 -93
15 -93 12 0 15 18 15 96 0 53 -4 102 -9 110 -10 15 -51 18 -99 7 l-33 -8 5 65
c5 52 3 66 -9 71 -8 3 -15 2 -16 -2z"/>
<path d="M1888 458 c-2 -16 -9 -22 -20 -20 -11 2 -18 -3 -18 -13 0 -8 6 -15
14 -15 11 0 11 -10 0 -62 -23 -110 -18 -129 42 -139 29 -5 30 11 2 25 -26 14
-28 52 -8 127 11 39 12 40 45 33 57 -10 41 18 -17 32 -5 1 -10 2 -13 3 -2 0 0
12 5 26 8 21 7 25 -10 25 -12 0 -20 -8 -22 -22z"/>
<path d="M3288 458 c-18 -11 -36 -25 -39 -30 -4 -7 -9 -6 -13 1 -11 18 -61 13
-88 -8 -16 -13 -33 -18 -47 -14 -21 5 -22 3 -17 -28 17 -95 42 -172 59 -175
18 -2 17 10 -4 81 -20 71 -19 84 11 105 47 33 65 27 81 -27 7 -27 14 -50 15
-53 12 -64 18 -80 25 -80 20 0 20 31 1 99 -21 78 -18 88 40 110 29 11 45 0 51
-35 16 -92 31 -134 48 -134 16 0 16 4 3 53 -8 28 -16 65 -19 81 -7 33 -22 66
-33 67 -4 0 -14 2 -24 4 -9 2 -31 -6 -50 -17z"/>
<path d="M2683 454 c-80 -33 -90 -194 -17 -265 29 -28 43 -33 91 -37 59 -4
113 9 113 28 0 6 -22 7 -60 3 -107 -11 -157 35 -158 145 0 82 24 104 119 111
49 4 75 10 77 19 3 17 -121 14 -165 -4z"/>
<path d="M2002 390 c-29 -18 -38 -39 -45 -105 -5 -56 42 -104 105 -106 50 -2
58 0 58 14 0 8 -16 12 -46 12 -36 1 -50 6 -65 24 -19 23 -27 87 -10 76 11 -6
84 -18 124 -19 16 -1 25 -6 23 -13 -3 -6 0 -28 5 -48 13 -45 56 -73 107 -70
51 3 52 4 52 15 0 6 -19 10 -43 10 -46 0 -86 26 -88 58 -3 38 3 68 18 90 12
20 21 23 66 21 33 -2 52 1 55 9 2 7 -6 13 -20 14 -84 5 -94 4 -115 -15 -13
-11 -23 -26 -23 -33 0 -7 -4 -16 -10 -19 -5 -3 -7 0 -4 8 7 20 -12 64 -33 75
-40 20 -79 21 -111 2z m81 -19 c27 -10 43 -39 29 -53 -12 -12 -104 4 -109 18
-5 14 24 44 42 44 8 0 25 -4 38 -9z"/>
<path d="M2924 384 c-52 -25 -67 -83 -40 -149 14 -33 59 -65 91 -65 38 0 84
32 95 66 19 57 -1 134 -40 150 -32 14 -76 13 -106 -2z m102 -39 c42 -63 16
-145 -46 -145 -31 0 -69 32 -71 59 -1 9 -3 27 -4 41 -8 63 86 98 121 45z"/>
</g>
</svg>
